#N canvas 68 139 771 587 12;
#X obj 78 162 r playSound;
#X obj 400 166 r stopSound;
#X obj 151 18 r loadSound;
#X obj 151 79 soundfiler;
#X obj 551 15 array define array-0;
#X obj 551 36 array define array-1;
#X obj 551 57 array define array-2;
#X obj 551 78 array define array-3;
#X obj 551 99 array define array-4;
#X obj 226 261 route 0 1 2 3 4;
#X obj 225 312 tabplay~ array-0;
#X obj 249 341 tabplay~ array-1;
#X obj 262 371 tabplay~ array-2;
#X obj 274 397 tabplay~ array-3;
#X obj 284 420 tabplay~ array-4;
#X msg 351 199 \$1 stop;
#X obj 78 192 \$1 bang;
#X msg 151 50 read -resize \$2 array-\$1;
#X text 251 20 Receives [ID filename(;
#X text 105 139 Receives [ID(;
#X text 369 142 Receives [ID(;
#X obj 233 523 dac~;
#X obj 241 483 +~;
#X connect 0 0 16 0;
#X connect 1 0 15 0;
#X connect 2 0 17 0;
#X connect 9 0 10 0;
#X connect 9 1 11 0;
#X connect 9 2 12 0;
#X connect 9 3 13 0;
#X connect 9 4 14 0;
#X connect 10 0 22 0;
#X connect 11 0 22 0;
#X connect 12 0 22 0;
#X connect 13 0 22 0;
#X connect 14 0 22 0;
#X connect 15 0 9 0;
#X connect 16 0 9 0;
#X connect 17 0 3 0;
#X connect 22 0 21 0;
#X connect 22 0 21 1;
